<svg version="1" xmlns="http://www.w3.org/2000/svg" width="533.333" height="533.333" viewBox="0 0 400.000000 400.000000"><path d="M0 200v200h400V0H0v200zM206 61c15.2 1 65.1 5.7 70.8 6.6l3.2.5v30.4L266.3 109c-38.8 29.6-87.8 87.6-124.9 147.5-5.8 9.5-21.7 41.5-20.9 42.3.1.1 6.3-1.3 13.6-3.2 12.6-3.3 29.7-6.6 62.8-12.1 7.9-1.4 14.6-2.6 14.8-2.9.8-.8 4.2-15 5.9-24.6 1.1-6.2 1.7-15.5 1.7-26.5.1-18.9-1.1-27.2-6.7-47.6-1.9-6.8-3.1-12.7-2.8-13 .9-.8 21.3-6.2 21.7-5.7 1.4 1.6 6.8 14 9 21l2.8 8.6 7.6-6.7c16.6-14.6 27-20.4 39.4-21.9 26.4-3.3 46.7 13.4 56.6 46.6 8.7 29.4 12.4 67 10.2 104.7-.7 10.9-1.4 20.1-1.6 20.3-.4.4-63.8 3.1-64.2 2.7-.2-.1 1.8-3.7 4.3-8.1 11.1-19.2 16.6-33.1 20.5-51.4 1.9-8.7 2.3-13.7 2.3-29 .1-16.4-.2-19.4-2.2-26.5-4.2-14.4-10.8-24.1-19.7-28.8-3-1.6-5.8-2.1-11.5-2.2-10.7 0-14.4 2.1-26.4 15.1l-9.9 10.5 1.6 16.7c.9 9.2 1.9 22.7 2.3 29.9l.7 13.3 3.6-.5c6-.7 43.1-1.7 43.1-1.1 0 .4-8.6 17.7-19 38.7-15.9 31.8-19.4 38-20.8 37.4-5.2-2.1-37-9.5-44.7-10.4-4.9-.6-21.9-1.7-37.7-2.3-43.2-1.8-70.6.1-111.8 7.6-10.2 1.9-18.7 3.2-18.9 3-.2-.2-1-12.6-1.7-27.5l-1.3-27.2 2.2-2.7c1.2-1.5 5.8-7.2 10.3-12.6C61 275 71.1 261.7 79 251c27.5-37.3 43.1-56 76-90.9 17.8-19 33.7-33.4 45-40.9 4.7-3.1 12.6-9 17.5-13.1l9-7.4-11.8.7c-16.6.9-29.8 2.9-50.9 7.7-38.8 8.8-51.5 13.3-82.3 29-12.6 6.4-23.9 12-25.1 12.3-1.9.6-1.5-2 6.9-42.1 4.9-23.6 9.2-43.1 9.5-43.5C75 60.6 179.2 59.2 206 61z"/><path d="M114.5 301.5l-4 1.3 3.6.1c2.4.1 3.9-.4 4.3-1.4.3-.8.4-1.5.3-1.4-.1 0-2 .6-4.2 1.4z"/></svg>